<svg viewBox="0 0 18 11" version="1.1" xmlns="http://www.w3.org/2000/svg">
    <path d="M9.011,7.87C9.235,7.873 9.443,7.987 9.568,8.173C9.83,8.567 10.141,9.033 10.406,9.431C10.777,9.988 11.402,10.322 12.07,10.322L15.5,10.322C16.88,10.322 18,9.202 18,7.822L18,2.822C18,1.442 17.017,0.468 15.5,0.322C13.335,0.113 11.167,0.003 9,0L8.898,0C6.765,0.006 4.631,0.116 2.5,0.322C0.983,0.468 0,1.442 0,2.822L0,7.822C0,9.202 1.12,10.322 2.5,10.322L5.93,10.322C6.598,10.322 7.223,9.988 7.594,9.431C7.859,9.033 8.17,8.567 8.432,8.173C8.559,7.984 8.772,7.87 9,7.87L9.011,7.87ZM2.318,3.403L3.632,3.403L4.298,5.08C4.376,5.279 4.448,5.471 4.513,5.657C4.577,5.842 4.652,6.034 4.736,6.233L4.77,6.233C4.854,6.034 4.928,5.842 4.993,5.657C5.057,5.471 5.129,5.279 5.208,5.08L5.856,3.403L7.128,3.403L5.469,7L3.978,7L2.318,3.403ZM14.292,7L13.239,5.703L12.565,5.703L12.565,7L11.318,7L11.318,3.403L13.298,3.403C13.59,3.403 13.864,3.421 14.119,3.458C14.375,3.495 14.599,3.556 14.793,3.643C14.987,3.729 15.14,3.844 15.252,3.988C15.364,4.131 15.42,4.309 15.42,4.523C15.42,4.788 15.331,5.005 15.151,5.177C14.971,5.348 14.735,5.475 14.443,5.56L15.682,7L14.292,7ZM12.565,5.058L13.197,5.058C13.522,5.058 13.771,5.013 13.942,4.923C14.113,4.833 14.199,4.699 14.199,4.523C14.199,4.346 14.113,4.223 13.942,4.153C13.771,4.083 13.522,4.048 13.197,4.048L12.565,4.048L12.565,5.058Z"/>
</svg>